<?xml version="1.0" encoding="utf-8"?>
<!-- Generator: Adobe Illustrator 22.0.1, SVG Export Plug-In . SVG Version: 6.00 Build 0)  -->
<svg version="1.1" id="Layer_1" xmlns="http://www.w3.org/2000/svg" xmlns:xlink="http://www.w3.org/1999/xlink" x="0px" y="0px"
	 viewBox="0 0 400 400" style="enable-background:new 0 0 400 400;" xml:space="preserve">
<style type="text/css">
	.st0{fill:#6C6C6C;}
</style>
<g>
	<path class="st0" d="M219,95.4c-11.6-4.5-30.7-4.5-42.3,0L9.7,159.8c-11.6,4.5-11.6,11.8,0,16.3l166.9,64.4
		c11.6,4.5,30.7,4.5,42.3,0L386,176.1c11.6-4.5,11.6-11.8,0-16.3L219,95.4z"/>
	<g>
		<path class="st0" d="M197.8,263.3c-10.4,0-20.4-1.7-28.2-4.7l-74.8-28.8v35.6c0,19.8,46.1,35.8,103,35.8c56.9,0,103-16,103-35.8
			v-35.6L226,258.6C218.2,261.7,208.2,263.3,197.8,263.3z"/>
	</g>
	<rect x="372.1" y="167.9" class="st0" width="13.8" height="97.6"/>
	<path class="st0" d="M389,269.8c2.1-1.2,3.4-2.7,3.4-4.4c0-3.6-5.8-6.5-13-6.5c-7.2,0-13,2.9-13,6.5c0,1.3,0.8,2.5,2.1,3.5
		c-3.8,8.8-11,26.6-9.5,29.7c2,4.1,11,8.1,16.3,5.3c0,0,4.1,4.7,11.4,1c0,0,9.3,2.2,13.4-3.7C400,301.2,400.2,290.3,389,269.8z"/>
</g>
</svg>
